<?xml version="1.0" encoding="UTF-8"?>
<svg id="Capa_1" data-name="Capa 1" xmlns="http://www.w3.org/2000/svg" version="1.1" viewBox="0 0 25.4 25.4">
  <defs>
    <style>
      .cls-1 {
        fill: #fff;
        stroke-width: 0px;
      }
    </style>
  </defs>
  <path class="cls-1" d="M12.4,2c5.9,0,10.7,4.8,10.7,10.7s-4.8,10.7-10.7,10.7S1.7,18.6,1.7,12.7h0C1.7,6.8,6.5,2,12.4,2M12.4.3C5.6.3,0,5.9,0,12.7c0,6.8,5.6,12.4,12.4,12.4,6.8,0,12.4-5.6,12.4-12.4,0-6.8-5.6-12.4-12.4-12.4Z"/>
  <path class="cls-1" d="M19,9.5c0-.9-.4-1.7-1.1-2.3-.7-.6-1.5-.9-2.4-1-1.5,0-5.2,0-6.4,0-1.4.2-2.6,1.2-2.9,2.6-.3,2.4-.3,4.9,0,7.3.1,1.4,1.2,2.6,2.6,2.9,2.4.2,4.8.2,7.2,0,1.4-.1,2.6-1.2,2.9-2.6.2-2.3.3-4.7.1-7ZM17.8,16c-.1,1.1-1,1.9-2.1,2-2.3.2-4.5.1-6.8-.1-.9-.3-1.5-1-1.6-1.9-.2-2.2-.2-4.4,0-6.6.1-1.1,1-1.9,2.1-1.9,2.1-.2,4.3-.2,6.4,0,1.1,0,2,1,2,2.1.2,2.1.2,4.3,0,6.4ZM12.5,9.4c-1.9.3-3.1,2.1-2.8,3.9.2,1.4,1.4,2.5,2.8,2.8,1.9.3,3.6-.9,3.9-2.8s-.9-3.6-2.8-3.9c-.4,0-.8,0-1.2,0ZM12.5,14.9c-1.2,0-2.1-.9-2.1-2.1,0,0,0,0,0-.1-.3-1.2.5-2.4,1.7-2.6,1.2-.3,2.4.5,2.6,1.7,0,.3,0,.6,0,.9,0,1.2-1,2.2-2.2,2.2ZM16.8,9.2c0,.4-.2.7-.6.8,0,0-.1,0-.2,0-.4,0-.7-.3-.7-.7,0,0,0,0,0-.1,0-.4.3-.7.7-.8.4,0,.8.4.8.8h0Z"/>
  <path class="cls-1" d="M19,9.5c0-.9-.4-1.7-1.1-2.3-.7-.6-1.5-.9-2.4-1-1.5,0-5.2,0-6.4,0-1.4.2-2.6,1.2-2.9,2.6-.3,2.4-.3,4.9,0,7.3.1,1.4,1.2,2.6,2.6,2.9,2.4.2,4.8.2,7.2,0,1.4-.1,2.6-1.2,2.9-2.6.2-2.3.3-4.7.1-7ZM17.8,16c-.1,1.1-1,1.9-2.1,2-2.3.2-4.5.1-6.8-.1-.9-.3-1.5-1-1.6-1.9-.2-2.2-.2-4.4,0-6.6.1-1.1,1-1.9,2.1-1.9,2.1-.2,4.3-.2,6.4,0,1.1,0,2,1,2,2.1.2,2.1.2,4.3,0,6.4ZM12.5,9.4c-1.9.3-3.1,2.1-2.8,3.9.2,1.4,1.4,2.5,2.8,2.8,1.9.3,3.6-.9,3.9-2.8s-.9-3.6-2.8-3.9c-.4,0-.8,0-1.2,0ZM12.5,14.9c-1.2,0-2.1-.9-2.1-2.1,0,0,0,0,0-.1-.3-1.2.5-2.4,1.7-2.6,1.2-.3,2.4.5,2.6,1.7,0,.3,0,.6,0,.9,0,1.2-1,2.2-2.2,2.2ZM16.8,9.2c0,.4-.2.7-.6.8,0,0-.1,0-.2,0-.4,0-.7-.3-.7-.7,0,0,0,0,0-.1,0-.4.3-.7.7-.8.4,0,.8.4.8.8h0Z"/>
</svg>