<?xml version="1.0" encoding="UTF-8"?>
<svg id="Capa_1" data-name="Capa 1" xmlns="http://www.w3.org/2000/svg" viewBox="0 0 25.39 25.39">
  <defs>
    <style>
      .cls-1 {
        fill: #fff;
        stroke-width: 0px;
      }
    </style>
  </defs>
  <path class="cls-1" d="M17.91,25.39H7.49c-4.13,0-7.49-3.36-7.49-7.49V7.49C0,3.36,3.36,0,7.49,0h10.42c4.13,0,7.49,3.36,7.49,7.49v10.42c0,4.13-3.36,7.49-7.49,7.49ZM7.49,1.95C4.44,1.95,1.95,4.44,1.95,7.49v10.42c0,3.05,2.48,5.53,5.53,5.53h10.42c3.05,0,5.53-2.48,5.53-5.53V7.49c0-3.05-2.48-5.53-5.53-5.53H7.49Z"/>
  <path class="cls-1" d="M10.09,21.49c-2.69,0-4.88-2.19-4.88-4.88s2.19-4.88,4.88-4.88c.54,0,.98.44.98.98s-.44.98-.98.98c-1.62,0-2.93,1.31-2.93,2.93s1.31,2.93,2.93,2.93,2.93-1.31,2.93-2.93V4.88c0-.48.35-.89.82-.96.47-.08.93.2,1.08.66.18.54.63,1.37,1.34,2.04.84.79,1.83,1.2,2.94,1.2.54,0,.98.44.98.98s-.44.98-.98.98c-1.59,0-3.05-.58-4.23-1.68v8.52c0,2.69-2.19,4.88-4.88,4.88Z"/>
</svg>